<svg width="20" height="20" viewBox="0 0 20 20" fill="none" xmlns="http://www.w3.org/2000/svg">
<path fill-rule="evenodd" clip-rule="evenodd" d="M2.5 4.82153C2.5 3.53938 3.53938 2.5 4.82153 2.5H15.1785C16.4606 2.5 17.5 3.53938 17.5 4.82153C17.5 5.49412 17.2594 6.14453 16.8217 6.6552L14.4599 9.41062C13.5537 10.4679 13.0556 11.8144 13.0556 13.2069V15C13.0556 16.3807 11.9363 17.5 10.5556 17.5H9.44444C8.06373 17.5 6.94444 16.3807 6.94444 15V13.2069C6.94444 11.8144 6.44632 10.4679 5.54011 9.41062L3.17832 6.6552C2.7406 6.14453 2.5 5.49412 2.5 4.82153ZM4.82153 4.16667C4.45986 4.16667 4.16667 4.45986 4.16667 4.82153C4.16667 5.09627 4.26495 5.36195 4.44375 5.57054L6.80554 8.32597C7.97067 9.68529 8.61111 11.4166 8.61111 13.2069V15C8.61111 15.4602 8.98421 15.8333 9.44444 15.8333H10.5556C11.0158 15.8333 11.3889 15.4602 11.3889 15V13.2069C11.3889 11.4166 12.0293 9.68529 13.1945 8.32597L15.5563 5.57054C15.7351 5.36195 15.8333 5.09627 15.8333 4.82153C15.8333 4.45986 15.5401 4.16667 15.1785 4.16667H4.82153Z" fill="#A9A9A9"/>
</svg>
