<svg width="20" height="20" viewBox="0 0 20 20" fill="none" xmlns="http://www.w3.org/2000/svg">
<path fill-rule="evenodd" clip-rule="evenodd" d="M10 2.08329C10 1.85317 9.81349 1.66663 9.58337 1.66663H6.66671C4.82576 1.66663 3.33337 3.15901 3.33337 4.99996V15C3.33337 16.8409 4.82576 18.3333 6.66671 18.3333H13.3334C15.1743 18.3333 16.6667 16.8409 16.6667 15V8.74996C16.6667 8.51984 16.4802 8.33329 16.25 8.33329H14.1667C11.8655 8.33329 10 6.46781 10 4.16663V2.08329ZM16.0162 6.66663C16.2933 6.66663 16.4925 6.39907 16.3594 6.15604C16.2464 5.9497 16.1038 5.75856 15.9345 5.58922L12.7441 2.39886C12.5748 2.22951 12.3836 2.08697 12.1773 1.97396C11.9343 1.84086 11.6667 2.04 11.6667 2.31708V4.16663C11.6667 5.54734 12.786 6.66663 14.1667 6.66663H16.0162ZM10 9.16663C10.4603 9.16663 10.8334 9.53972 10.8334 9.99996V11.6666H12.5C12.9603 11.6666 13.3334 12.0397 13.3334 12.5C13.3334 12.9602 12.9603 13.3333 12.5 13.3333H10.8334V15C10.8334 15.4602 10.4603 15.8333 10 15.8333C9.5398 15.8333 9.16671 15.4602 9.16671 15V13.3333H7.50004C7.0398 13.3333 6.66671 12.9602 6.66671 12.5C6.66671 12.0397 7.0398 11.6666 7.50004 11.6666H9.16671V9.99996C9.16671 9.53972 9.5398 9.16663 10 9.16663Z" fill="white" fill-opacity="0.25"/>
</svg>
