<svg width="20" height="20" viewBox="0 0 20 20" fill="none" xmlns="http://www.w3.org/2000/svg">
<path fill-rule="evenodd" clip-rule="evenodd" d="M2.5 9.99996C2.5 9.53972 2.8731 9.16663 3.33333 9.16663H16.6667C17.1269 9.16663 17.5 9.53972 17.5 9.99996C17.5 10.4602 17.1269 10.8333 16.6667 10.8333H3.33333C2.8731 10.8333 2.5 10.4602 2.5 9.99996Z" fill="#FF5623"/>
<path fill-rule="evenodd" clip-rule="evenodd" d="M10 2.5C10.4603 2.5 10.8334 2.8731 10.8334 3.33333L10.8334 16.6667C10.8334 17.1269 10.4603 17.5 10 17.5C9.5398 17.5 9.16671 17.1269 9.16671 16.6667L9.16671 3.33333C9.16671 2.8731 9.5398 2.5 10 2.5Z" fill="#FF5623"/>
</svg>
